<svg id="Calque_1" data-name="Calque 1" xmlns="http://www.w3.org/2000/svg" viewBox="0 0 317.06 167.52"><defs><style>.cls-1{fill:#0c1f2b;}.cls-2{fill:#ffa800;}</style></defs><path class="cls-1" d="M83.21,73.79a2.88,2.88,0,0,0,2.92,3c.87,0,1.37-.37,1.37-.88a5.06,5.06,0,0,1,1.41-2.61.87.87,0,0,0,.34-.64c0-1-2-2-3.86-2C84.28,70.7,83.21,72.25,83.21,73.79Z"/><path class="cls-1" d="M105.66,59.19c1.41,0,2-.47,2-.94s-.43-.67-1.3-.67c-2.22,0-3.9-2.12-3.9-4.94,0-6.71,9.8-12.92,20.61-12.92,9.67,0,14.94,4.94,14.94,11,0,10.51-15.58,25.72-24.44,25.72a5.8,5.8,0,0,1-1.94-.31C114.28,68.35,121.77,49,123.28,49c.2,0,.37-.34.37-.77,0-1.88-2.92-4.47-5.44-4.47S105,71.44,105,75.67c0,2.28,3.06,5.14,4.84,5.14.6,0,1-.34,1-1.31a1.8,1.8,0,0,1,.07-.64,11.87,11.87,0,0,0,6.58,2c10.94,0,24.6-13.63,24.6-27.76,0-10.41-7.41-19-19.63-19s-23,8.63-23,17.52C99.38,56,102,59.19,105.66,59.19Z"/><path class="cls-1" d="M147.63,76c2.15,0,4.4-3.36,6.61-7.52a19.84,19.84,0,0,0-.47,3.86c0,1.71,3.36,3.66,6.85,3.66.49,0,2.61-2.7,5-6a8.34,8.34,0,0,0-.31,1.75c0,2.28,4.83,4.26,6.07,4.26.37,0,.61-.17.61-.71,0-2.31,4.66-10.1,9.16-15.7-1.85,3.79-3.83,9.56-3.83,12.75,0,1.71,3.36,3.66,6.85,3.66.37,0,.67-.47.67-1.07,0-2.19,4.43-9.81,8.8-15.34-1.85,3.79-3.86,9.56-3.86,12.75,0,1.71,3.39,3.66,6.84,3.66.51,0,2.56-2.52,4.86-5.65a8.51,8.51,0,0,0-.27,1.62c0,2.08,3.69,4,7.18,4,.55,0,3.22-3.4,5.95-7.23.54,4.14,4.11,7.23,7.54,7.23s7.06-3,10.11-6.46a11.37,11.37,0,0,0-.39,2.13c0,2.35,4.84,4.33,6.08,4.33.37,0,.6-.17.6-.71,0-2.31,4.6-10.23,9.07-15.84-1.82,3.79-3.7,9.63-3.7,12.89,0,1.71,3.63,3.66,7.12,3.66,1.11,0,12.32-16.55,12.42-18,0-.33-.37-.63-.8-.63a2.15,2.15,0,0,0-1.62,1.17C260,59.83,250.91,73,250.44,73c-.07,0-.1-.2-.1-.57,0-3.76,4-14.64,5.67-14.64a.83.83,0,0,0,.67-.77c0-1.31-4.86-3.49-5.94-3.49-2,0-7.59,7.09-11.08,13.16,1.61-4.83,3.93-9.93,5-9.93.27,0,.27-.31.27-.37,0-1.25-4.33-2.86-5.87-2.86-1.26,0-3.53,5.22-5.23,10.12-3.14,4.3-7.72,9.59-10.94,9.59-1.51,0-2.45-1.18-2.45-3.13,0-4.63,5.23-11,8.89-11.41-.6,4.13-4.9,7-7.08,7-.44,0-.67.11-.67.24,0,.43,2,1.41,3.32,1.41,2.62,0,7.75-3.89,7.75-8.53,0-2.72-3.42-5.27-6.41-5.27-4.35,0-9.54,5.4-11.35,10.67-2.86,4-6.38,8.8-6.67,8.8-.06,0-.1-.2-.1-.37,0-1.64,4.13-15.07,5.41-15.07.13,0,.33-.2.33-.5,0-1.35-3.62-3.53-5.54-3.53-.87,0-3,5.18-4.77,10.11-2.93,4.11-6.79,9.36-7.09,9.36-.07,0-.1-.2-.1-.54,0-3.89,4.59-14.7,6.2-14.7a.59.59,0,0,0,.51-.6c0-1.45-4.8-3.63-5.88-3.63-2.31,0-9.49,9.8-12.65,16.35,1.24-5.17,4.23-12.12,5.54-12.12.27,0,.47-.3.47-.6,0-1.45-4.73-3.63-5.88-3.63-1.94,0-7.52,6.92-11.07,12.93,1.67-4.77,4-9.7,4.83-9.7.17,0,.3-.17.3-.41,0-1.24-4.46-2.82-6-2.82-.91,0-3,4.53-4.69,9.12C165.05,66.88,160.74,73,160.42,73c-.07,0-.1-.2-.1-.6,0-3.76,3.76-14.64,5.84-14.64a.77.77,0,0,0,.74-.74c0-1.31-4.57-3.49-5.57-3.49-.71,0-1.68,1.08-2.79,2.75-.44-1.54-5-2.75-6.68-2.75-4.8,0-10.74,9.47-10.74,18.4C141.12,73.32,145.72,76,147.63,76Zm10.61-19.33c-1.25,1.94-2.72,4.56-4.06,7.14-2.52,4.84-5.17,9.57-6.72,10.14C147.46,65,153,56.71,158.24,56.71Z"/><path class="cls-1" d="M214.34,52.64c1.14,0,1.2-.27,1.2-.67,0-2.18,2.19-6.95,3.39-6.95a.55.55,0,0,0,.51-.5c0-1-3.59-3.29-4.87-3.29-1.85,0-4.87,4.84-4.87,7.62C209.7,51,211.62,52.64,214.34,52.64Z"/><path class="cls-1" d="M87.36,102.34a5.08,5.08,0,0,0-1.72-.87,7.8,7.8,0,0,0-2.08-.27H77.89a.57.57,0,0,0-.42.17.6.6,0,0,0-.18.43v14.52a.58.58,0,0,0,.18.43.58.58,0,0,0,.42.18h.93a.58.58,0,0,0,.42-.18.58.58,0,0,0,.18-.43v-5.5h4.14a7.07,7.07,0,0,0,2.08-.3,4.8,4.8,0,0,0,1.72-.9,4.41,4.41,0,0,0,1.18-1.51,5.45,5.45,0,0,0,0-4.29A4.3,4.3,0,0,0,87.36,102.34ZM86,108.1a4,4,0,0,1-2.5.69h-4v-5.57h4a4.18,4.18,0,0,1,2.5.65,2.4,2.4,0,0,1,.89,2.09A2.54,2.54,0,0,1,86,108.1Z"/><path class="cls-1" d="M105,106.35a4.46,4.46,0,0,0-1.54-1,5.21,5.21,0,0,0-2-.35,4.44,4.44,0,0,0-2.21.48,4,4,0,0,0-1.27,1v-5a.61.61,0,0,0-.61-.61h-.83a.6.6,0,0,0-.43.18.58.58,0,0,0-.18.43v14.74a.58.58,0,0,0,.18.43.6.6,0,0,0,.43.18h.83a.61.61,0,0,0,.61-.61v-5.93a3.53,3.53,0,0,1,.86-2.59,3.12,3.12,0,0,1,2.29-.85,3.06,3.06,0,0,1,2.31.85,3.57,3.57,0,0,1,.83,2.59v5.93a.58.58,0,0,0,.18.43.6.6,0,0,0,.43.18h.83a.61.61,0,0,0,.61-.61v-6.27a5.87,5.87,0,0,0-.36-2.11A4.45,4.45,0,0,0,105,106.35Z"/><path class="cls-1" d="M123.7,108a4.75,4.75,0,0,0-1.07-1.58,5,5,0,0,0-1.62-1,6.46,6.46,0,0,0-4.31,0,5,5,0,0,0-1.62,1A4.75,4.75,0,0,0,114,108a6.77,6.77,0,0,0-.48,2c0,.13,0,.3,0,.48s0,.39,0,.59,0,.39,0,.58a4.38,4.38,0,0,0,0,.46,6.62,6.62,0,0,0,.48,2,4.7,4.7,0,0,0,1.07,1.57,4.66,4.66,0,0,0,1.62,1,6.3,6.3,0,0,0,4.31,0,4.62,4.62,0,0,0,2.68-2.59,7.25,7.25,0,0,0,.49-2,3,3,0,0,0,0-.46v-1.17a3.47,3.47,0,0,0,0-.48A6.77,6.77,0,0,0,123.7,108Zm-1.56,4a5,5,0,0,1-.3,1.26,3,3,0,0,1-.63,1,2.8,2.8,0,0,1-1,.67,3.47,3.47,0,0,1-1.38.25,3.42,3.42,0,0,1-1.37-.25,2.76,2.76,0,0,1-1-.67,3,3,0,0,1-.63-1,5,5,0,0,1-.29-1.26,8.15,8.15,0,0,1,0-.93,9,9,0,0,1,0-1,5,5,0,0,1,.29-1.26,3.08,3.08,0,0,1,.63-1,2.89,2.89,0,0,1,1-.67,3.42,3.42,0,0,1,1.37-.25,3.47,3.47,0,0,1,1.38.25,2.94,2.94,0,0,1,1,.67,3.08,3.08,0,0,1,.63,1,5,5,0,0,1,.3,1.26c0,.27,0,.59,0,1S122.16,111.78,122.14,112Z"/><path class="cls-1" d="M134.25,101.15a.58.58,0,0,0-.43-.18H133a.58.58,0,0,0-.42.18.58.58,0,0,0-.18.43v3.66h-1.67a.58.58,0,0,0-.42.18.58.58,0,0,0-.18.43v.72a.61.61,0,0,0,.18.43.57.57,0,0,0,.42.17h1.67V113a4.37,4.37,0,0,0,.87,2.92,3.59,3.59,0,0,0,2.84,1h1.41a.61.61,0,0,0,.61-.61v-.71a.61.61,0,0,0-.61-.61h-1.19a2.52,2.52,0,0,1-.95-.15,1.27,1.27,0,0,1-.58-.42,1.56,1.56,0,0,1-.28-.64,3.91,3.91,0,0,1-.08-.79v-5.83h2.86a.57.57,0,0,0,.42-.17.61.61,0,0,0,.18-.43v-.72a.58.58,0,0,0-.18-.43.58.58,0,0,0-.42-.18h-2.86v-3.66A.58.58,0,0,0,134.25,101.15Z"/><path class="cls-1" d="M154.5,108a4.9,4.9,0,0,0-1.07-1.58,5,5,0,0,0-1.62-1,6.49,6.49,0,0,0-4.32,0,5,5,0,0,0-1.62,1,4.88,4.88,0,0,0-1.06,1.58,6.49,6.49,0,0,0-.49,2c0,.13,0,.3,0,.48s0,.39,0,.59,0,.39,0,.58,0,.34,0,.46a6.36,6.36,0,0,0,.49,2,4.83,4.83,0,0,0,1.06,1.57,4.66,4.66,0,0,0,1.62,1,6.33,6.33,0,0,0,4.32,0,4.62,4.62,0,0,0,2.68-2.59,7.6,7.6,0,0,0,.49-2c0-.12,0-.27,0-.46v-1.17c0-.18,0-.35,0-.48A6.77,6.77,0,0,0,154.5,108Zm-1.57,4a4.64,4.64,0,0,1-.29,1.26,3,3,0,0,1-.63,1,2.76,2.76,0,0,1-1,.67,3.88,3.88,0,0,1-2.74,0,2.76,2.76,0,0,1-1-.67,3,3,0,0,1-.63-1,5,5,0,0,1-.29-1.26,7.88,7.88,0,0,1-.05-.93,8.72,8.72,0,0,1,.05-1,5,5,0,0,1,.29-1.26,3.08,3.08,0,0,1,.63-1,2.89,2.89,0,0,1,1-.67,3.88,3.88,0,0,1,2.74,0,2.89,2.89,0,0,1,1,.67,3.08,3.08,0,0,1,.63,1,4.64,4.64,0,0,1,.29,1.26,8.72,8.72,0,0,1,0,1A7.88,7.88,0,0,1,152.93,112Z"/><path class="cls-1" d="M171.79,105.24H171a.56.56,0,0,0-.42.18.58.58,0,0,0-.18.43v.7a4.24,4.24,0,0,0-1.26-1,4.47,4.47,0,0,0-2.23-.48,5.15,5.15,0,0,0-2,.37,4.85,4.85,0,0,0-1.58,1,5.17,5.17,0,0,0-1.08,1.68,6.69,6.69,0,0,0-.47,2.22c0,.23,0,.48,0,.75s0,.51,0,.74a6.69,6.69,0,0,0,.47,2.22,5.17,5.17,0,0,0,1.08,1.68,4.7,4.7,0,0,0,1.58,1,5.16,5.16,0,0,0,2,.38,4.58,4.58,0,0,0,2.2-.46,4,4,0,0,0,1.29-1.07V117a3.28,3.28,0,0,1-.26,1.37,2.25,2.25,0,0,1-.73.9,3.08,3.08,0,0,1-1.12.49,6.58,6.58,0,0,1-1.38.14,4.64,4.64,0,0,1-1.34-.16,3.56,3.56,0,0,1-.85-.4,1.73,1.73,0,0,1-.47-.47c-.1-.15-.17-.28-.22-.37a1.09,1.09,0,0,0-.32-.47.64.64,0,0,0-.42-.13h-.67a.62.62,0,0,0-.44.18.48.48,0,0,0-.17.43,2.6,2.6,0,0,0,.33,1.11,3.41,3.41,0,0,0,.92,1.08,4.93,4.93,0,0,0,1.57.81,7.14,7.14,0,0,0,2.31.33,5.26,5.26,0,0,0,4-1.38,5.16,5.16,0,0,0,1.33-3.73V105.85a.61.61,0,0,0-.61-.61Zm-1.43,6.66a3.55,3.55,0,0,1-1,2.45,3.15,3.15,0,0,1-2.3.87,3,3,0,0,1-2.34-.94,4,4,0,0,1-.95-2.57c0-.41,0-.83,0-1.25a4,4,0,0,1,.95-2.57,3,3,0,0,1,2.34-.94,3.18,3.18,0,0,1,2.3.86,3.55,3.55,0,0,1,1,2.47c0,.22,0,.49,0,.81S170.37,111.67,170.36,111.9Z"/><path class="cls-1" d="M186.2,105.24H185a3.68,3.68,0,0,0-1.64.32,2.82,2.82,0,0,0-1.08,1v-.7a.58.58,0,0,0-.18-.43.56.56,0,0,0-.42-.18h-.83a.61.61,0,0,0-.61.61v10.47a.61.61,0,0,0,.61.61h.83a.56.56,0,0,0,.42-.18.58.58,0,0,0,.18-.43v-6.56a2.29,2.29,0,0,1,2.59-2.59h1.3a.57.57,0,0,0,.43-.17.61.61,0,0,0,.18-.43v-.72a.61.61,0,0,0-.61-.61Z"/><path class="cls-1" d="M200.76,106.16a4.16,4.16,0,0,0-1.48-.85,5.74,5.74,0,0,0-1.88-.29,5.19,5.19,0,0,0-1.65.25,5.64,5.64,0,0,0-1.37.67,3.35,3.35,0,0,0-.95.92,2.16,2.16,0,0,0-.39,1,.48.48,0,0,0,.17.43.6.6,0,0,0,.43.18h.68a1,1,0,0,0,.43-.07.74.74,0,0,0,.29-.25,4.08,4.08,0,0,1,.86-.85,2.59,2.59,0,0,1,1.5-.36,3,3,0,0,1,1.88.57,2,2,0,0,1,.75,1.72v.3l-3.17.51a12,12,0,0,0-1.79.45,5.39,5.39,0,0,0-1.47.77,3.38,3.38,0,0,0-1,1.14,3.32,3.32,0,0,0-.36,1.58,2.82,2.82,0,0,0,.28,1.25,2.89,2.89,0,0,0,.79,1,4.23,4.23,0,0,0,1.23.66,5.17,5.17,0,0,0,1.61.25,6.62,6.62,0,0,0,2.26-.45,4.62,4.62,0,0,0,1-.55,2.16,2.16,0,0,0,.63-.76v.92a.61.61,0,0,0,.61.61h.83a.6.6,0,0,0,.6-.61v-6.85a4.93,4.93,0,0,0-.34-1.91A4,4,0,0,0,200.76,106.16ZM200,111.9a3.41,3.41,0,0,1-.26,1.34,2.9,2.9,0,0,1-.74,1.05,3.42,3.42,0,0,1-1.16.68,4.14,4.14,0,0,1-1.48.25,3.06,3.06,0,0,1-1-.13,1.79,1.79,0,0,1-.64-.36,1.38,1.38,0,0,1-.36-.47,1.13,1.13,0,0,1-.11-.5,1.45,1.45,0,0,1,.83-1.28,6.33,6.33,0,0,1,2.25-.72l2.65-.43Z"/><path class="cls-1" d="M220,108.14a5.17,5.17,0,0,0-1.08-1.68,4.52,4.52,0,0,0-1.58-1.07,5.12,5.12,0,0,0-2-.37,4.5,4.5,0,0,0-2.2.46,3.84,3.84,0,0,0-1.28,1.07v-.7a.61.61,0,0,0-.61-.61h-.83a.61.61,0,0,0-.61.61V120.6a.58.58,0,0,0,.18.42.58.58,0,0,0,.43.18h.83a.58.58,0,0,0,.43-.18.58.58,0,0,0,.18-.42v-5a4.12,4.12,0,0,0,1.26,1,4.4,4.4,0,0,0,2.22.49,5.12,5.12,0,0,0,2-.38,4.6,4.6,0,0,0,1.58-1,5.17,5.17,0,0,0,1.08-1.68,7,7,0,0,0,.48-2.22c0-.23,0-.47,0-.73s0-.51,0-.73A7,7,0,0,0,220,108.14Zm-1.57,3.57a4.08,4.08,0,0,1-.94,2.57,3,3,0,0,1-2.34.94,3.2,3.2,0,0,1-2.31-.86,3.49,3.49,0,0,1-.95-2.46c0-.23,0-.53,0-.89s0-.67,0-.89a3.22,3.22,0,0,1,1-2.32,3.17,3.17,0,0,1,2.29-.85,3,3,0,0,1,2.34.94,4.1,4.1,0,0,1,.94,2.57C218.46,110.88,218.46,111.3,218.44,111.71Z"/><path class="cls-1" d="M236.82,106.35a4.46,4.46,0,0,0-1.54-1,5.21,5.21,0,0,0-2-.35,4.44,4.44,0,0,0-2.21.48,4,4,0,0,0-1.27,1v-5a.58.58,0,0,0-.18-.43.6.6,0,0,0-.43-.18h-.83a.61.61,0,0,0-.61.61v14.74a.61.61,0,0,0,.61.61h.83a.6.6,0,0,0,.43-.18.58.58,0,0,0,.18-.43v-5.93a3.53,3.53,0,0,1,.86-2.59,3.54,3.54,0,0,1,4.6,0,3.61,3.61,0,0,1,.83,2.59v5.93a.61.61,0,0,0,.61.61h.83a.6.6,0,0,0,.43-.18.58.58,0,0,0,.18-.43v-6.27a5.87,5.87,0,0,0-.36-2.11A4.59,4.59,0,0,0,236.82,106.35Z"/><path class="cls-1" d="M247.37,105.24h-.83a.6.6,0,0,0-.43.18.58.58,0,0,0-.18.43v10.47a.58.58,0,0,0,.18.43.6.6,0,0,0,.43.18h.83a.61.61,0,0,0,.61-.61V105.85a.61.61,0,0,0-.61-.61Z"/><path class="cls-1" d="M247.6,101h-1.28a.61.61,0,0,0-.61.61v1.28a.6.6,0,0,0,.18.43.58.58,0,0,0,.43.18h1.28a.58.58,0,0,0,.42-.18.6.6,0,0,0,.18-.43v-1.28a.58.58,0,0,0-.18-.43A.58.58,0,0,0,247.6,101Z"/><path class="cls-1" d="M264.26,106.55a4.54,4.54,0,0,0-1.63-1.14,5.71,5.71,0,0,0-2.17-.39,5.15,5.15,0,0,0-2,.38,4.5,4.5,0,0,0-1.56,1.06A5.23,5.23,0,0,0,255.8,108a5.9,5.9,0,0,0-.49,1.93,9,9,0,0,0,0,2.07,6.3,6.3,0,0,0,.49,2,5.25,5.25,0,0,0,1.07,1.62,4.74,4.74,0,0,0,1.56,1.08,5.07,5.07,0,0,0,2,.4,6.87,6.87,0,0,0,2.08-.29,5.5,5.5,0,0,0,1.48-.69,3.39,3.39,0,0,0,.91-.9,2.29,2.29,0,0,0,.38-.89.44.44,0,0,0-.16-.43.64.64,0,0,0-.45-.18H264a1,1,0,0,0-.4.07,1.48,1.48,0,0,0-.32.25,3.88,3.88,0,0,1-1,.77,3.77,3.77,0,0,1-1.85.35,3.13,3.13,0,0,1-2.22-.82,3.17,3.17,0,0,1-.93-2.35v-.13H265a.61.61,0,0,0,.61-.61v-.61a7.35,7.35,0,0,0-.36-2.36A5.16,5.16,0,0,0,264.26,106.55Zm-.63,3.48h-6.32V110a3.08,3.08,0,0,1,.27-1.23,2.76,2.76,0,0,1,.67-1,3.35,3.35,0,0,1,1-.61,3.47,3.47,0,0,1,1.22-.21,3.19,3.19,0,0,1,2.3.82,2.88,2.88,0,0,1,.87,2.19Z"/><path class="cls-1" d="M119.77,83A448.21,448.21,0,0,0,72.2,86.3C79.94,67,86.67,46.94,86.67,41c0-3.21-5.56-7.8-11-7.8-16.62,0-40,24.54-40,42,0,7.51,4.3,12.73,10.66,12.73,2.47,0,3.62-.75,3.62-1.49s-.86-1.21-2.47-1.21c-3.78,0-6.42-2.92-6.42-7.68,0-12.73,19-32.56,33.59-36.75C72.06,52.38,65.25,71.44,58,88.5c-.8.21-1.58.44-2.36.68-15.55,4.34-26.39,14.9-26.39,27.3,0,8.43,5,14.16,12.27,14.16a16.38,16.38,0,0,0,13.3-7.39c4.14-6.41,9.77-18.51,15.2-31.54,5.18-.2,10.38-.18,15.5-.46,40.37-1.09,97.91-2.81,137.7-1.13,23,.63,45.95,1.65,68.91,3.22l.06-.72A1503.17,1503.17,0,0,0,119.77,83ZM37.32,124.68c-1.67,0-4.13-3.5-4.13-8.71,0-7.69,5.3-14.69,13.55-19.45a29.2,29.2,0,0,1,5.2-2.15c1.33-.42,2.67-.78,4-1.07C48.35,110.6,40.75,124.68,37.32,124.68Z"/><polygon class="cls-2" points="143.17 141.73 129.96 141.73 129.96 144.13 145.57 144.13 145.57 128.52 143.17 128.52 143.17 141.73"/><polygon class="cls-2" points="27.23 128.52 24.83 128.52 24.83 144.13 40.44 144.13 40.44 141.73 27.23 141.73 27.23 128.52"/><polygon class="cls-2" points="27.23 25.79 40.44 25.79 40.44 23.39 24.83 23.39 24.83 39 27.23 39 27.23 25.79"/><polygon class="cls-2" points="143.17 39 145.57 39 145.57 23.39 129.96 23.39 129.96 25.79 143.17 25.79 143.17 39"/></svg>